<svg width="44" height="40" viewBox="0 0 44 40" fill="none" xmlns="http://www.w3.org/2000/svg">
<path d="M22.9668 13.3496V36.9482H22.9717V13.3496H22.9668Z" fill="#343535"/>
<path d="M29.7588 18.8232H33.958V19.6045H29.7588V18.8232ZM29.7588 25.0732H33.958V25.8545H29.7588V25.0732ZM8.4209 6.32324H12.6201V7.10449H8.4209V6.32324ZM15.75 6.32324H19.9492V7.10449H15.75V6.32324ZM8.4209 12.5684H12.6201V13.3496H8.4209V12.5684ZM15.75 12.5684H19.9492V13.3496H15.75V12.5684ZM8.42578 18.8428H12.625V19.624H8.42578V18.8428ZM15.75 18.8281H19.9492V19.6094H15.75V18.8281Z" fill="#39393A"/>
<path d="M16.4482 28.9453C15.8672 28.3643 15.0615 28.0029 14.1777 28.0029C12.4102 28.0029 10.9648 29.4482 10.9648 31.2158V36.9482H11.9414V31.2158C11.9414 30.6201 12.1758 30.0635 12.6006 29.6387C13.0254 29.2139 13.5869 28.9795 14.1777 28.9795C14.7734 28.9795 15.3301 29.2139 15.7549 29.6387C16.1797 30.0635 16.4141 30.625 16.4141 31.2158V36.9482H17.3906V31.2158C17.3906 30.332 17.0293 29.5313 16.4482 28.9453Z" fill="#032F61"/>
<path d="M25.1152 15.498V36.8799H25.1201V15.498H25.1152Z" fill="#343535"/>
<path d="M40.75 36.9482V13.3496H25.1201V0H3.25V36.9482H0.125V39.0967H43.875V36.9482H40.75ZM22.9717 36.9482H5.39844V2.14844H22.9717V36.9482ZM38.6016 36.875H25.1152V15.498H38.6016V36.875Z" fill="#39393A"/>
</svg>
