<svg width="34" height="44" viewBox="0 0 34 44" fill="none" xmlns="http://www.w3.org/2000/svg">
<path d="M26.2598 28.7012C26.2598 28.8307 26.3112 28.9549 26.4028 29.0464C26.4944 29.138 26.6185 29.1895 26.748 29.1895C26.8775 29.1895 27.0017 29.138 27.0933 29.0464C27.1849 28.9549 27.2363 28.8307 27.2363 28.7012C27.2363 28.5717 27.1849 28.4475 27.0933 28.3559C27.0017 28.2643 26.8775 28.2129 26.748 28.2129C26.6185 28.2129 26.4944 28.2643 26.4028 28.3559C26.3112 28.4475 26.2598 28.5717 26.2598 28.7012Z" fill="#032F61"/>
<path d="M16.6064 0H0V43.75H33.2031V15.7031L16.6064 0ZM30.2197 15.835H16.5479V2.89551L30.2197 15.835ZM31.0547 41.6016H2.14844V2.14844H15.752L15.7617 2.1582V16.6211H31.04L31.0498 16.6309V41.6016H31.0547Z" fill="#39393A"/>
<path d="M5.29785 22.7539H21.2109V23.5352H5.29785V22.7539Z" fill="#39393A"/>
<path d="M22.8271 22.7539H27.2314V23.5352H22.8271V22.7539Z" fill="#032F61"/>
<path d="M11.3037 28.2129H24.8291V28.9941H11.3037V28.2129Z" fill="#39393A"/>
<path d="M5.30273 28.2129H9.75586V28.9941H5.30273V28.2129Z" fill="#032F61"/>
<path d="M5.26855 33.6768H21.2109V34.458H5.26855V33.6768Z" fill="#39393A"/>
<path d="M23.623 33.6768H27.2314V34.458H23.623V33.6768Z" fill="#032F61"/>
</svg>
