<svg width="25" height="30" viewBox="0 0 25 30" fill="none" xmlns="http://www.w3.org/2000/svg">
<path fill-rule="evenodd" clip-rule="evenodd" d="M0 28.2486C0 27.6636 0.47428 27.1893 1.05932 27.1893H23.6582C24.2432 27.1893 24.7175 27.6636 24.7175 28.2486C24.7175 28.8336 24.2432 29.3079 23.6582 29.3079H1.05932C0.47428 29.3079 0 28.8336 0 28.2486Z" fill="#032F61" stroke="black" stroke-width="0.000542373"/>
<path d="M11.6807 18.2613L20.0376 9.90431C18.9002 9.43093 17.553 8.65333 16.279 7.37931C15.0048 6.10505 14.2272 4.75771 13.7539 3.62022L5.39674 11.9773C4.74464 12.6294 4.41849 12.9555 4.13807 13.3151C3.80726 13.7391 3.52365 14.198 3.29223 14.6836C3.09608 15.0952 2.95024 15.5328 2.65859 16.4078L1.12061 21.0216C0.977078 21.4523 1.08914 21.927 1.41007 22.2479C1.73102 22.5688 2.20572 22.6809 2.6363 22.5373L7.25024 20.9994C8.1252 20.7078 8.5627 20.5619 8.97431 20.3657C9.45986 20.1343 9.91883 19.8507 10.3428 19.5199C10.7024 19.2394 11.0286 18.9134 11.6807 18.2613Z" fill="#032F61" stroke="black" stroke-width="0.000542373"/>
<path d="M22.3566 7.58537C24.0918 5.85011 24.0918 3.03671 22.3566 1.30144C20.6213 -0.433814 17.8079 -0.433814 16.0727 1.30144L15.0703 2.30374C15.084 2.3452 15.0983 2.38722 15.1131 2.42977C15.4805 3.4887 16.1736 4.87685 17.4777 6.18082C18.7816 7.48479 20.1697 8.17795 21.2286 8.54532C21.271 8.56003 21.3128 8.57421 21.3541 8.58787L22.3566 7.58537Z" fill="#032F61" stroke="black" stroke-width="0.000542373"/>
</svg>
