<svg width="25" height="28" viewBox="0 0 25 28" fill="none" xmlns="http://www.w3.org/2000/svg">
<path d="M24.8568 12.8497L22.7533 8.22714C22.5575 7.79557 22.0479 7.60614 21.6185 7.802C21.1873 7.99786 20.9971 8.50657 21.1933 8.93686L22.6355 12.107H17.0632C16.5901 12.107 16.2061 12.491 16.2061 12.9641C16.2061 13.4373 16.5901 13.8213 17.0632 13.8213H22.9303L21.1925 17.6407C20.9962 18.071 21.1865 18.5797 21.6176 18.7756C21.7329 18.8274 21.8533 18.8527 21.9721 18.8527C22.2978 18.8527 22.6089 18.6659 22.7525 18.3504L24.8692 13.6983C24.9138 13.6143 24.9429 13.5239 24.9575 13.4304C24.9948 13.2316 24.9575 13.0254 24.8568 12.8497Z" fill="#032F61"/>
<path d="M20.107 19.3901C19.6339 19.3901 19.2499 19.7737 19.2499 20.2473V23.6784H14.5356V5.54386C14.5356 4.80586 14.1884 4.151 13.4877 3.91743L8.51543 2.24986H19.2499V6.533C19.2499 7.00614 19.6339 7.39014 20.107 7.39014C20.5801 7.39014 20.9641 7.00614 20.9641 6.533V1.39014C20.9641 0.917001 20.9654 0.535572 20.4919 0.535572H3.40386L3.26458 0.488858C3.08757 0.429715 2.96715 0.401001 2.785 0.401001C2.42972 0.401001 1.95357 0.511572 1.65786 0.724572C1.21086 1.04686 0.821289 1.56414 0.821289 2.11529V22.5033C0.821289 23.2409 1.41829 23.8961 2.11815 24.1297L12.4664 27.5583C12.6434 27.617 12.8577 27.6461 13.0394 27.6461C13.3951 27.6461 13.6373 27.5356 13.9326 27.3221C14.3796 26.9999 14.5356 26.4826 14.5356 25.9319V25.3927H20.4919C20.965 25.3927 20.9641 25.0061 20.9641 24.533V20.2473C20.9641 19.7737 20.5806 19.3901 20.107 19.3901ZM12.8213 25.9319L2.53557 22.5033V2.24986V2.216L2.62857 2.14786L12.8213 5.54386V25.9319Z" fill="#032F61"/>
<path d="M11.1068 19.3901C11.3438 19.3901 11.5354 19.1986 11.5354 18.9616V16.3901C11.5354 16.1531 11.3438 15.9616 11.1068 15.9616C10.8698 15.9616 10.6782 16.1531 10.6782 16.3901V18.9616C10.6782 19.1986 10.8698 19.3901 11.1068 19.3901Z" fill="#032F61"/>
</svg>
