<svg width="26" height="28" viewBox="0 0 26 28" fill="none" xmlns="http://www.w3.org/2000/svg">
<path opacity="0.5" d="M8.90556 3.58333C8.83333 4.38559 8.83333 5.39381 8.83333 6.6692V21.3307C8.83333 22.6061 8.83333 23.6144 8.90557 24.4167H7.44444C4.17081 24.4167 2.53399 24.4167 1.51699 23.3997C0.5 22.3826 0.5 20.7458 0.5 17.4722V10.5278C0.5 7.25413 0.5 5.61731 1.51699 4.60031C2.53399 3.58333 4.17081 3.58333 7.44444 3.58333H8.90556Z" fill="#032F61"/>
<path fill-rule="evenodd" clip-rule="evenodd" d="M9.81579 0.678747C8.8335 1.54957 8.8335 3.14248 8.8335 6.32833V21.6717C8.8335 24.8575 8.8335 26.4504 9.81579 27.3213C10.7981 28.1921 12.2995 27.9301 15.3024 27.4064L18.5368 26.8424C21.8625 26.2622 23.5253 25.9722 24.5128 24.7524C25.5002 23.5326 25.5002 21.7685 25.5002 18.2401V9.75987C25.5002 6.23154 25.5002 4.46739 24.5128 3.24758C23.5253 2.02776 21.8625 1.73775 18.5368 1.15769L15.3024 0.593552C12.2995 0.0698024 10.7981 -0.192073 9.81579 0.678747ZM14.0418 12.5465C14.0418 11.9444 13.5754 11.4564 13.0002 11.4564C12.4249 11.4564 11.9585 11.9444 11.9585 12.5465V15.4535C11.9585 16.0556 12.4249 16.5436 13.0002 16.5436C13.5754 16.5436 14.0418 16.0556 14.0418 15.4535V12.5465Z" fill="#032F61"/>
</svg>
