<svg width="64" height="77" viewBox="0 0 64 77" fill="none" xmlns="http://www.w3.org/2000/svg">
<path d="M54.2096 30.3333L33.8602 10.1111C33.526 9.77243 33.0709 9.55554 32.5953 9.55554H14.7162C11.526 9.55554 8.88867 12.0071 8.88867 15.5751V60.1413C8.88867 63.4684 11.2584 66.4444 14.7162 66.4444H48.6158C51.8745 66.4444 55.1109 63.7653 55.1109 60.1413V31.5964C55.1109 31.1289 54.5376 30.6658 54.2096 30.3333ZM33.7776 14.9884L50.0816 30.8889H36.9793C34.9713 30.8889 33.7776 29.0951 33.7776 27.2124V14.9884ZM48.6158 62.8889H14.7162C13.2051 62.8889 12.4442 61.5298 12.4442 60.1404V15.5751C12.4442 14.1964 13.2762 13.1111 14.7162 13.1111H31.8522L31.9998 13.2551V27.2124C31.9998 30.0444 34.0185 32.6667 36.9793 32.6667H51.5553V60.1413C51.5553 61.5333 50.0353 62.8889 48.6158 62.8889Z" fill="#032F61"/>
<path d="M17.8879 40.6667H24.999C25.4906 40.6667 25.8879 40.2693 25.8879 39.7778C25.8879 39.2862 25.4906 38.8889 24.999 38.8889H17.8879C17.3972 38.8889 16.999 39.2862 16.999 39.7778C16.999 40.2693 17.3972 40.6667 17.8879 40.6667Z" fill="#032F61"/>
<path d="M28.5553 40.6667H37.4442C37.9357 40.6667 38.3331 40.2693 38.3331 39.7778C38.3331 39.2862 37.9357 38.8889 37.4442 38.8889H28.5553C28.0637 38.8889 27.6655 39.2862 27.6655 39.7778C27.6655 40.2693 28.0637 40.6667 28.5553 40.6667Z" fill="#032F61"/>
<path d="M44.5553 38.8889H40.9997C40.5082 38.8889 40.1108 39.2862 40.1108 39.7778C40.1108 40.2693 40.5082 40.6667 40.9997 40.6667H44.5553C45.0468 40.6667 45.4442 40.2693 45.4442 39.7778C45.4442 39.2862 45.0468 38.8889 44.5553 38.8889Z" fill="#032F61"/>
<path d="M17.8879 45.1111H21.4435C21.935 45.1111 22.3324 44.7138 22.3324 44.2222C22.3324 43.7306 21.935 43.3333 21.4435 43.3333H17.8879C17.3972 43.3333 16.999 43.7306 16.999 44.2222C16.999 44.7138 17.3972 45.1111 17.8879 45.1111Z" fill="#032F61"/>
<path d="M24.9988 43.3333C24.5081 43.3333 24.1099 43.7306 24.1099 44.2222C24.1099 44.7138 24.5081 45.1111 24.9988 45.1111H32.1108C32.6023 45.1111 32.9996 44.7138 32.9996 44.2222C32.9996 43.7306 32.6023 43.3333 32.1108 43.3333H24.9988Z" fill="#032F61"/>
<path d="M44.5551 43.3333H35.6662C35.1747 43.3333 34.7773 43.7306 34.7773 44.2222C34.7773 44.7138 35.1747 45.1111 35.6662 45.1111H44.5551C45.0467 45.1111 45.444 44.7138 45.444 44.2222C45.444 43.7306 45.0467 43.3333 44.5551 43.3333Z" fill="#032F61"/>
<path d="M17.8879 50.4444H26.7768C27.2684 50.4444 27.6657 50.0471 27.6657 49.5555C27.6657 49.064 27.2684 48.6667 26.7768 48.6667H17.8879C17.3972 48.6667 16.999 49.064 16.999 49.5555C16.999 50.0471 17.3972 50.4444 17.8879 50.4444Z" fill="#032F61"/>
<path d="M39.2221 48.6667H30.3332C29.8417 48.6667 29.4443 49.064 29.4443 49.5555C29.4443 50.0471 29.8417 50.4444 30.3332 50.4444H39.2221C39.7137 50.4444 40.111 50.0471 40.111 49.5555C40.111 49.064 39.7137 48.6667 39.2221 48.6667Z" fill="#032F61"/>
<path d="M44.5553 48.6667H42.7776C42.286 48.6667 41.8887 49.064 41.8887 49.5555C41.8887 50.0471 42.286 50.4444 42.7776 50.4444H44.5553C45.0469 50.4444 45.4442 50.0471 45.4442 49.5555C45.4442 49.064 45.0469 48.6667 44.5553 48.6667Z" fill="#032F61"/>
<path d="M21.4435 53.1111H17.8879C17.3972 53.1111 16.999 53.5084 16.999 54C16.999 54.4915 17.3972 54.8889 17.8879 54.8889H21.4435C21.935 54.8889 22.3324 54.4915 22.3324 54C22.3324 53.5084 21.935 53.1111 21.4435 53.1111Z" fill="#032F61"/>
<path d="M31.2219 53.1111H24.9988C24.5081 53.1111 24.1099 53.5084 24.1099 54C24.1099 54.4915 24.5081 54.8889 24.9988 54.8889H31.2219C31.7125 54.8889 32.1108 54.4915 32.1108 54C32.1108 53.5084 31.7125 53.1111 31.2219 53.1111Z" fill="#032F61"/>
</svg>
