<svg width="64" height="64" viewBox="0 0 64 64" fill="none" xmlns="http://www.w3.org/2000/svg">
<path d="M52.2825 11.7164C46.8665 6.29955 39.663 3.31555 32.0017 3.31555C16.1848 3.31555 3.31632 16.184 3.31543 32C3.31632 47.816 16.1848 60.6844 32.0017 60.6844C39.663 60.6844 46.8665 57.7004 52.2825 52.2818C57.7021 46.8649 60.6852 39.6613 60.6843 32C60.6852 24.3387 57.7012 17.1351 52.2825 11.7164ZM47.8674 42.624C48.5937 39.792 49.0399 36.7271 49.1465 33.5173H57.079C56.8043 38.152 55.2754 42.544 52.6559 46.3076C51.6488 44.9102 50.0034 43.6596 47.8674 42.624ZM36.9145 56.6498C35.6577 56.8978 34.3732 57.048 33.071 57.1022V41.3253C37.9323 41.4373 42.3928 42.3031 45.7643 43.6347C43.9563 49.7209 40.7768 54.4453 36.9145 56.6498ZM18.2372 43.6338C21.6923 42.2693 26.2923 41.3956 31.2932 41.32V57.1102C29.8523 57.0702 28.4399 56.9129 27.0692 56.64C23.215 54.4293 20.0425 49.7102 18.2372 43.6338ZM11.3519 46.296C8.80165 42.6249 7.20521 38.2462 6.92165 33.5173H14.855C14.9625 36.7262 15.4088 39.792 16.135 42.6231C14.0034 43.656 12.3599 44.9031 11.3519 46.296ZM6.87721 31.7396C6.92876 26.7591 8.43543 22.1236 10.9937 18.2338C11.9119 19.7947 13.6105 21.1938 15.8994 22.3387C15.2257 25.272 14.8505 28.4382 14.8319 31.7396H6.87721ZM16.6337 33.5173H18.951C19.4425 33.5173 19.8399 33.12 19.8399 32.6284C19.8399 32.1369 19.4425 31.7396 18.951 31.7396H16.6097C16.6274 28.6996 16.9528 25.7813 17.5394 23.0738C21.1981 24.5493 25.9768 25.4587 31.2941 25.5333V31.7396H23.3954C22.9039 31.7396 22.5065 32.1369 22.5065 32.6284C22.5065 33.12 22.9039 33.5173 23.3954 33.5173H31.2932V39.5422C26.087 39.6151 21.3972 40.4871 17.7688 41.9102C17.1297 39.2978 16.735 36.4738 16.6337 33.5173ZM27.0683 7.36C28.4399 7.08533 29.8523 6.92889 31.2932 6.88889V23.7556C26.1608 23.6782 21.4479 22.7609 17.9634 21.3342C19.711 14.7938 23.0114 9.68622 27.0683 7.36ZM46.0372 21.3342C42.6363 22.7271 38.0621 23.6356 33.071 23.7502V6.89688C34.3732 6.95111 35.6576 7.10044 36.9154 7.34933C40.9803 9.67022 44.287 14.7831 46.0372 21.3342ZM33.071 25.5289C38.2425 25.4187 42.887 24.5164 46.4621 23.0738C47.0488 25.7813 47.3732 28.6996 47.3919 31.7396H33.071V25.5289ZM33.071 39.5467V33.5173H47.3679C47.2665 36.4738 46.871 39.2987 46.2328 41.9111C42.6879 40.5218 38.1323 39.6542 33.071 39.5467ZM49.1688 31.7396C49.1501 28.4382 48.7759 25.272 48.1021 22.3387C50.3981 21.1893 52.1003 19.7849 53.0168 18.2169C55.6434 22.2044 57.0728 26.8613 57.1217 31.7387L49.1688 31.7396ZM51.8337 16.5751C51.3519 18.0649 49.8585 19.4444 47.6541 20.5876C46.2843 15.6862 44.063 11.5413 41.2959 8.64533C44.431 9.89244 47.3119 11.7733 49.7697 14.2311C50.5119 14.9742 51.1963 15.76 51.8337 16.5751ZM22.6843 8.66933C19.927 11.5636 17.7145 15.6996 16.3483 20.5876C14.151 19.448 12.6603 18.0747 12.1732 16.5902C14.8932 13.0978 18.5137 10.3413 22.6843 8.66933ZM12.4745 47.7938C13.1785 46.5147 14.6265 45.336 16.6212 44.3458C18.0008 48.8276 20.1048 52.6222 22.6843 55.3298C18.6665 53.7209 15.159 51.1049 12.4745 47.7938ZM41.295 55.3538C43.8852 52.6436 45.9972 48.8409 47.3803 44.3467C49.3803 45.3396 50.8319 46.5227 51.5332 47.8071C50.9812 48.4853 50.3945 49.1404 49.7679 49.7671C47.3101 52.2258 44.4301 54.1067 41.295 55.3538Z" fill="#032F61"/>
</svg>
