<svg width="44" height="35" viewBox="0 0 44 35" fill="none" xmlns="http://www.w3.org/2000/svg">
<path d="M21.3867 19.8682C21.3867 19.9977 21.4382 20.1219 21.5297 20.2134C21.6213 20.305 21.7455 20.3564 21.875 20.3564C22.0045 20.3564 22.1287 20.305 22.2203 20.2134C22.3118 20.1219 22.3633 19.9977 22.3633 19.8682C22.3633 19.7387 22.3118 19.6145 22.2203 19.5229C22.1287 19.4313 22.0045 19.3799 21.875 19.3799C21.7455 19.3799 21.6213 19.4313 21.5297 19.5229C21.4382 19.6145 21.3867 19.7387 21.3867 19.8682Z" fill="#032F61"/>
<path d="M26.748 22.207H16.7236L2.14844 11.1328V12.1143L16.4551 22.9883H27.002L41.6016 12.085V11.1084L26.748 22.207Z" fill="#032F61"/>
<path d="M31.25 4.61426V0H12.5V4.61426H0V34.1553H43.75V4.61426H31.25ZM14.6484 2.14844H29.1016V4.60938H14.6484V2.14844ZM41.6016 32.0068H2.14844V29.624H41.6016V32.0068ZM41.6016 28.8379H2.14844V6.76269H41.6016V28.8379Z" fill="#39393A"/>
</svg>
