<svg width="31" height="44" viewBox="0 0 31 44" fill="none" xmlns="http://www.w3.org/2000/svg">
<path d="M14.6094 11.5918C14.6094 11.7213 14.6608 11.8455 14.7524 11.9371C14.844 12.0286 14.9682 12.0801 15.0977 12.0801C15.2272 12.0801 15.3514 12.0286 15.4429 11.9371C15.5345 11.8455 15.5859 11.7213 15.5859 11.5918C15.5859 11.4623 15.5345 11.3381 15.4429 11.2465C15.3514 11.155 15.2272 11.1035 15.0977 11.1035C14.9682 11.1035 14.844 11.155 14.7524 11.2465C14.6608 11.3381 14.6094 11.4623 14.6094 11.5918Z" fill="#032F61"/>
<path d="M9.64355 33.2373C9.74609 33.2031 9.84375 33.1689 9.94629 33.1396C9.84863 33.1689 9.74609 33.2031 9.64355 33.2373ZM9.64355 33.2373C9.74609 33.2031 9.84375 33.1689 9.94629 33.1396C9.84863 33.1689 9.74609 33.2031 9.64355 33.2373Z" fill="#39393A"/>
<path d="M15.0879 9.41406C16.2793 9.41406 17.2461 10.3809 17.2461 11.5723C17.2461 12.7637 16.2793 13.7305 15.0879 13.7305C13.8965 13.7305 12.9297 12.7637 12.9297 11.5723C12.9297 10.3809 13.9014 9.41406 15.0879 9.41406ZM15.0879 8.4375C13.3545 8.4375 11.9531 9.83887 11.9531 11.5723C11.9531 13.3057 13.3545 14.707 15.0879 14.707C16.8213 14.707 18.2227 13.3057 18.2227 11.5723C18.2227 9.83887 16.8213 8.4375 15.0879 8.4375Z" fill="#032F61"/>
<path d="M25.7764 22.7393C25.7959 22.3145 25.8057 21.8896 25.8057 21.46C25.8057 12.6904 21.6016 4.90234 15.0977 0C8.59863 4.90234 4.39453 12.6904 4.39453 21.46C4.39453 21.8896 4.4043 22.3145 4.42383 22.7344C1.68945 25.4688 0 29.2432 0 33.4131C0 36.4258 0.878906 39.2285 2.39746 41.582C3.87695 39.1504 6.04492 37.1826 8.63281 35.9521C10.5371 35.0439 12.6709 34.5361 14.9219 34.5361C17.2803 34.5361 19.5068 35.0928 21.4795 36.084C24.043 37.3682 26.1816 39.3896 27.6123 41.8652C29.2432 39.4531 30.1953 36.5479 30.1953 33.4131C30.1953 29.2432 28.5059 25.4736 25.7764 22.7393ZM7.24121 15.6055C7.69043 13.7549 8.35938 11.958 9.22363 10.2588C10.0759 8.58406 11.1179 7.01287 12.3291 5.57617C13.1787 4.57031 14.1064 3.62793 15.1025 2.76855C16.0986 3.62793 17.0264 4.57031 17.876 5.57617C19.0869 7.0166 20.1318 8.59375 20.9814 10.2588C21.8457 11.958 22.5146 13.7549 22.9639 15.6055C23.3887 17.3535 23.623 19.1553 23.6572 20.9717C21.2207 19.2969 18.2715 18.3154 15.0977 18.3154C11.9238 18.3154 8.97949 19.2969 6.54785 20.9717C6.58203 19.1553 6.81641 17.3535 7.24121 15.6055ZM2.81738 37.5391C2.37305 36.2207 2.14844 34.8291 2.14844 33.418C2.14844 31.6699 2.49023 29.9707 3.16406 28.3789C3.57422 27.4121 4.0918 26.5039 4.72168 25.6689C5.19531 28.6719 6.16211 31.5137 7.54394 34.0967C5.7666 34.9658 4.1748 36.1279 2.81738 37.5391ZM20.6006 33.374C20.5664 33.3594 20.5273 33.3496 20.4932 33.335C20.4736 33.3252 20.4492 33.3203 20.4297 33.3105C20.4004 33.3008 20.3662 33.2861 20.3369 33.2764C20.2979 33.2617 20.2637 33.252 20.2246 33.2373C20.1855 33.2227 20.1514 33.2129 20.1123 33.2031L20.0684 33.1885C20.0195 33.1738 19.9658 33.1543 19.917 33.1396C19.8584 33.1201 19.7998 33.1055 19.7461 33.0859L19.5996 33.042C19.5898 33.0371 19.5801 33.0371 19.5654 33.0322C19.5117 33.0176 19.4531 32.998 19.3994 32.9834C19.3408 32.9688 19.2822 32.9541 19.2285 32.9395L19.0527 32.8955L18.877 32.8516C18.8281 32.8369 18.7744 32.8271 18.7256 32.8174C18.667 32.8027 18.6084 32.793 18.5498 32.7783C18.4863 32.7637 18.4277 32.749 18.3643 32.7393H18.3496C18.3057 32.7295 18.2568 32.7197 18.2129 32.71C18.1934 32.7051 18.1787 32.7051 18.1592 32.7002C18.1055 32.6904 18.0518 32.6807 17.9932 32.6709C17.9346 32.6611 17.876 32.6514 17.8174 32.6367L17.5537 32.5928C17.5098 32.5879 17.4609 32.5781 17.417 32.5732C17.3779 32.5684 17.3389 32.5586 17.2949 32.5537C17.168 32.5342 17.0459 32.5195 16.9189 32.5049C16.8604 32.5 16.8066 32.4902 16.748 32.4854H16.7285C16.6846 32.4805 16.6406 32.4756 16.5918 32.4707C16.5381 32.4658 16.4893 32.4609 16.4355 32.4561C16.3525 32.4463 16.2695 32.4414 16.1865 32.4365C16.1475 32.4316 16.1133 32.4316 16.0742 32.4268C16.0303 32.4219 15.9814 32.4219 15.9375 32.417C15.918 32.417 15.8984 32.417 15.8789 32.4121C15.8252 32.4072 15.7764 32.4072 15.7227 32.4023C15.6982 32.4023 15.6738 32.3975 15.6494 32.3975C15.5859 32.3926 15.5225 32.3926 15.459 32.3926C15.4199 32.3926 15.3857 32.3877 15.3467 32.3877C15.2881 32.3877 15.2295 32.3877 15.1758 32.3828H14.4971C14.3848 32.3828 14.2725 32.3877 14.1602 32.3926C14.1162 32.3926 14.0674 32.3975 14.0234 32.3975C13.9844 32.3975 13.9502 32.4023 13.9111 32.4023C13.8428 32.4072 13.7744 32.4121 13.7109 32.417C13.6426 32.4219 13.5791 32.4268 13.5107 32.4316C13.4424 32.4365 13.3789 32.4414 13.3105 32.4512C13.2812 32.4512 13.252 32.4561 13.2227 32.4609L12.8418 32.5049C12.7881 32.5098 12.7393 32.5195 12.6855 32.5244C12.6367 32.5293 12.583 32.5391 12.5342 32.5439C12.3779 32.5684 12.2217 32.5879 12.0703 32.6172C12.0361 32.6221 12.002 32.627 11.9678 32.6367C11.9238 32.6416 11.8848 32.6514 11.8408 32.6611C11.7871 32.6709 11.7285 32.6807 11.6748 32.6904C11.6309 32.7002 11.5918 32.7051 11.5479 32.7148C11.5283 32.7197 11.5088 32.7197 11.4941 32.7246C11.46 32.7295 11.4258 32.7393 11.3916 32.7441C11.333 32.7588 11.2744 32.7686 11.2158 32.7832C11.1572 32.7979 11.0986 32.8076 11.04 32.8223C11.0303 32.8223 11.0205 32.8271 11.0107 32.8271C10.9863 32.832 10.9619 32.8369 10.9375 32.8467C10.8838 32.8613 10.8252 32.876 10.7666 32.8906C10.7031 32.9053 10.6445 32.9199 10.5811 32.9395C10.5615 32.9443 10.5371 32.9492 10.5127 32.959C10.4492 32.9785 10.3809 32.9932 10.3174 33.0127C10.2441 33.0322 10.1709 33.0566 10.0928 33.0762C10.0439 33.0908 9.99023 33.1055 9.94141 33.125C9.83887 33.1543 9.74121 33.1885 9.63867 33.2227C9.60449 33.2324 9.57031 33.2471 9.53613 33.2568C8.80371 31.9141 8.19824 30.5029 7.72949 29.0479C7.1582 27.2852 6.79199 25.4541 6.63086 23.5986C6.60156 23.2715 6.58203 22.9492 6.56738 22.6221C6.5625 22.5635 6.5625 22.5049 6.5625 22.4463C6.55762 22.3877 6.55762 22.3291 6.55762 22.2705C6.55762 22.2119 6.55273 22.1533 6.55273 22.0947C6.55273 22.0361 6.54785 21.9775 6.54785 21.9141C7.46582 21.2305 8.46191 20.6543 9.52637 20.2051C11.2891 19.458 13.1641 19.082 15.0977 19.082C17.0312 19.082 18.9062 19.4629 20.6689 20.2051C21.7334 20.6543 22.7295 21.2256 23.6475 21.9141V21.9189C23.6475 21.9678 23.6475 22.0117 23.6426 22.0605C23.6426 22.1289 23.6377 22.1973 23.6377 22.2705C23.6377 22.3047 23.6377 22.334 23.6328 22.3682C23.6279 22.4561 23.6279 22.5391 23.623 22.627C23.6084 22.9541 23.584 23.2764 23.5596 23.6035C23.3984 25.4834 23.0225 27.3389 22.4365 29.1211C21.9629 30.6006 21.3477 32.0215 20.6006 33.374ZM27.2803 37.8125C25.9375 36.3514 24.3453 35.1411 22.5781 34.2383C23.999 31.6162 24.9951 28.7305 25.4785 25.6689C26.1035 26.5039 26.6211 27.4072 27.0313 28.3789C27.7051 29.9756 28.0469 31.6699 28.0469 33.418C28.0469 34.9316 27.7881 36.4111 27.2803 37.8125Z" fill="#39393A"/>
<path d="M15.0977 36.8896C15.5225 36.8896 16.3037 38.0078 16.3037 39.8389C16.3037 41.6699 15.5225 42.7881 15.0977 42.7881C14.6729 42.7881 13.8916 41.6699 13.8916 39.8389C13.8916 38.0078 14.6729 36.8896 15.0977 36.8896ZM15.0977 35.9131C13.8916 35.9131 12.915 37.6709 12.915 39.8389C12.915 42.0068 13.8916 43.7646 15.0977 43.7646C16.3037 43.7646 17.2803 42.0068 17.2803 39.8389C17.2803 37.6709 16.3037 35.9131 15.0977 35.9131Z" fill="#032F61"/>
</svg>
