<svg width="34" height="34" viewBox="0 0 34 34" fill="none" xmlns="http://www.w3.org/2000/svg">
<path d="M16.6094 21.0703C16.6094 21.1739 16.6505 21.2733 16.7238 21.3465C16.797 21.4198 16.8964 21.4609 17 21.4609C17.1036 21.4609 17.203 21.4198 17.2762 21.3465C17.3495 21.2733 17.3906 21.1739 17.3906 21.0703C17.3906 20.9667 17.3495 20.8674 17.2762 20.7941C17.203 20.7208 17.1036 20.6797 17 20.6797C16.8964 20.6797 16.797 20.7208 16.7238 20.7941C16.6505 20.8674 16.6094 20.9667 16.6094 21.0703Z" fill="#032F61"/>
<path d="M16.5938 22.6602C16.5938 22.7638 16.6349 22.8631 16.7082 22.9364C16.7814 23.0096 16.8808 23.0508 16.9844 23.0508C17.088 23.0508 17.1873 23.0096 17.2606 22.9364C17.3338 22.8631 17.375 22.7638 17.375 22.6602C17.375 22.5566 17.3338 22.4572 17.2606 22.3839C17.1873 22.3107 17.088 22.2695 16.9844 22.2695C16.8808 22.2695 16.7814 22.3107 16.7082 22.3839C16.6349 22.4572 16.5938 22.5566 16.5938 22.6602Z" fill="#032F61"/>
<path d="M16.625 24.2539C16.625 24.3575 16.6662 24.4569 16.7394 24.5301C16.8127 24.6034 16.912 24.6445 17.0156 24.6445C17.1192 24.6445 17.2186 24.6034 17.2918 24.5301C17.3651 24.4569 17.4063 24.3575 17.4063 24.2539C17.4063 24.1503 17.3651 24.0509 17.2918 23.9777C17.2186 23.9044 17.1192 23.8633 17.0156 23.8633C16.912 23.8633 16.8127 23.9044 16.7394 23.9777C16.6662 24.0509 16.625 24.1503 16.625 24.2539Z" fill="#032F61"/>
<path d="M17 2.10938C18.6445 2.10938 20.1914 2.75 21.3555 3.91406C22.5195 5.07812 23.1602 6.625 23.1602 8.26953C23.1602 9.91406 22.5195 11.4609 21.3555 12.625C20.1914 13.7891 18.6445 14.4297 17 14.4297C15.3555 14.4297 13.8086 13.7891 12.6445 12.625C11.4805 11.4609 10.8398 9.91406 10.8398 8.26953C10.8398 6.625 11.4805 5.07812 12.6445 3.91406C13.8086 2.75 15.3555 2.10938 17 2.10938ZM17 0.390625C12.6484 0.390625 9.125 3.91797 9.125 8.26562C9.125 12.6172 12.6523 16.1406 17 16.1406C21.3516 16.1406 24.875 12.6133 24.875 8.26562C24.875 3.91797 21.3477 0.390625 17 0.390625ZM17.0117 17.4492L0.28125 23.6172V33.6055H33.7188V23.6172L17.0117 17.4492ZM32 31.8867H2V24.8359L17.0117 19.2734L32 24.8359V31.8867Z" fill="#39393A"/>
<path d="M18.6953 19.8633L18.6406 19.8438V26.0898C18.6406 26.5469 18.4531 26.9609 18.1562 27.2617C17.8555 27.5625 17.4414 27.7461 16.9844 27.7461C16.0703 27.7461 15.3281 27.0039 15.3281 26.0898V19.8633L15.2734 19.8828L14.7031 20.0859V26.0938C14.7031 27.3516 15.7266 28.375 16.9844 28.375C18.2422 28.375 19.2656 27.3516 19.2656 26.0938V20.0664L18.6953 19.8633Z" fill="#032F61"/>
</svg>
